<svg width="188" height="188" viewBox="0 0 188 188" fill="none" xmlns="http://www.w3.org/2000/svg">
<path d="M104.344 120.981L104.346 120.982L113.523 126.281L106.062 187.271L96.7185 181.877L96.7166 181.876L96.4949 181.748L95.9226 181.415L96.0046 180.759L96.0359 180.504L96.0369 180.502L101.908 134.361L64.908 162.796L64.3787 163.204L63.7996 162.871L63.5759 162.742L63.574 162.741L54.4636 157.481L103.552 120.525L104.344 120.981Z" fill="white"/>
<path d="M81.9109 119.142L82.0808 119.782L82.1453 120.027L84.6521 129.377L84.7175 129.624L84.8884 130.263L37.6785 167.182L36.488 168.116L33.4558 156.802L70.9607 127.763L24.948 121.739L24.0281 121.62L23.7888 120.724L21.0652 110.562L81.9109 119.142Z" fill="white"/>
<path d="M167.513 149.971L167.874 150.429L168.807 151.62L157.494 154.652L128.455 117.146L122.398 163.415L122.312 164.08L121.664 164.253L121.415 164.318L121.416 164.319L111.255 167.041L119.741 106.854L119.833 106.197L120.473 106.027L130.316 103.39L130.955 103.22L167.513 149.971Z" fill="white"/>
<path d="M187.964 82.0459L182.44 91.6123L182.107 92.1875L135.054 86.1992L163.897 123.732L163.561 124.312L163.431 124.533L163.432 124.534L158.173 133.645L121.216 84.5557L121.548 83.9824L121.675 83.7617L126.973 74.585L187.964 82.0459Z" fill="white"/>
<path d="M67.031 102.127L67.5837 102.859L62.2849 112.037L62.2839 112.038L61.825 112.831L0.835693 105.37L6.2312 96.0264L6.35718 95.8057L6.68921 95.2275L7.35034 95.3125L53.7429 101.215L25.4675 64.4189L24.9021 63.6855L30.6267 53.7715L67.031 102.127Z" fill="white"/>
<path d="M68.9666 81.2158L68.3298 81.3877L68.0828 81.4541L68.0818 81.4551L58.7312 83.959L58.7322 83.96L57.8464 84.1992L19.9949 35.7949L31.3044 32.7637L31.7126 33.2891L60.3435 70.2686L66.489 23.3359L67.1355 23.1641L77.5457 20.374L68.9666 81.2158Z" fill="white"/>
<path d="M155.344 30.6143L117.838 59.6514L163.851 65.6768H163.853L164.771 65.7988L167.732 76.8535L106.889 68.2744L104.147 58.04L104.146 58.0381L104.081 57.791L103.911 57.1523L152.312 19.3027L155.344 30.6143Z" fill="white"/>
<path d="M92.0798 5.53906L92.3025 5.66602L92.8796 5.99805L86.8914 53.0518L124.425 24.2109L125.227 24.6758L134.337 29.9355L85.7771 66.4941L85.2478 66.8916L76.071 61.5938L76.0701 61.5928L75.2771 61.1338L82.738 0.144531L92.0798 5.53906Z" fill="white"/>
</svg>
