<svg width="44" height="44" viewBox="0 0 44 44" fill="none" xmlns="http://www.w3.org/2000/svg">
<g clip-path="url(#clip0_7416_281903)">
<path d="M29.6461 28.7074L16.9004 41.4531L19.5371 44.0898L32.2828 31.3441L29.6461 28.7074Z" fill="white"/>
<path d="M22.6619 32.1473H4.63672V35.8762H22.6619V32.1473Z" fill="white"/>
<path d="M15.3043 29.6492L2.55859 16.9035L-0.0781287 19.5402L12.6676 32.2859L15.3043 29.6492Z" fill="white"/>
<path d="M11.8574 22.6657L11.8574 4.64055H8.12853L8.12853 22.6657H11.8574Z" fill="white"/>
<path d="M14.35 15.2941L27.0957 2.54842L24.459 -0.0883063L11.7133 12.6574L14.35 15.2941Z" fill="white"/>
<path d="M21.3401 11.8496L39.3652 11.8496V8.12075L21.3401 8.12075V11.8496Z" fill="white"/>
<path d="M28.6976 14.3525L41.4434 27.0982L44.0801 24.4615L31.3344 11.7157L28.6976 14.3525Z" fill="white"/>
<path d="M32.1504 21.3317V39.3568H35.8793V21.3317H32.1504Z" fill="white"/>
</g>
<defs>
<clipPath id="clip0_7416_281903">
<rect width="44" height="44" fill="white"/>
</clipPath>
</defs>
</svg>
