<svg width="653" height="188" viewBox="0 0 653 188" fill="none" xmlns="http://www.w3.org/2000/svg">
<path fill-rule="evenodd" clip-rule="evenodd" d="M335.808 48.7793C344.852 48.7794 352.597 50.6078 359.043 54.2637C365.585 57.9197 370.636 63.1149 374.196 69.8496C377.756 76.5844 379.536 84.5703 379.536 93.8066C379.536 102.947 377.756 110.932 374.196 117.763C370.636 124.497 365.585 129.694 359.043 133.35C352.501 137.005 344.756 138.833 335.808 138.833C326.957 138.833 319.26 137.005 312.718 133.35C306.175 129.597 301.076 124.354 297.42 117.619C293.86 110.884 292.08 102.947 292.08 93.8066C292.08 84.6666 293.86 76.7289 297.42 69.9941C300.979 63.2594 306.031 58.0642 312.573 54.4082C319.212 50.656 326.957 48.7793 335.808 48.7793ZM335.808 60.6133C326.38 60.6133 318.971 63.5481 313.583 69.417C308.291 75.1897 305.645 83.3198 305.645 93.8066C305.645 104.293 308.291 112.471 313.583 118.34C318.971 124.113 326.38 126.999 335.808 126.999C345.333 126.999 352.741 124.112 358.033 118.34C363.324 112.471 365.97 104.293 365.97 93.8066C365.97 83.2234 363.325 75.0451 358.033 69.2725C352.741 63.4999 345.333 60.6134 335.808 60.6133Z" fill="white"/>
<path fill-rule="evenodd" clip-rule="evenodd" d="M533.344 48.7793C541.521 48.7794 548.592 50.4629 554.557 53.8301C560.522 57.1012 565.141 61.7679 568.412 67.8291C571.779 73.8904 573.464 81.0588 573.464 89.333V95.3936H503.325C503.71 105.303 506.596 113.049 511.984 118.629C517.468 124.209 524.732 126.999 533.776 126.999C540.03 126.999 545.322 125.652 549.651 122.958C554.077 120.264 557.107 116.368 558.743 111.269H572.597C570.385 120.024 565.862 126.807 559.031 131.617C552.296 136.428 543.926 138.833 533.921 138.833C525.069 138.833 517.372 137.005 510.83 133.35C504.288 129.597 499.236 124.305 495.677 117.475C492.117 110.644 490.337 102.658 490.337 93.5176C490.337 84.3776 492.117 76.4882 495.677 69.8496C499.236 63.1149 504.239 57.9197 510.685 54.2637C517.131 50.6076 524.684 48.7793 533.344 48.7793ZM533.199 60.3252C525.406 60.3252 518.911 62.4898 513.716 66.8193C508.617 71.1488 505.394 77.21 504.047 85.0029H560.33C559.656 77.21 556.915 71.1488 552.104 66.8193C547.294 62.4899 540.992 60.3253 533.199 60.3252Z" fill="white"/>
<path d="M254.398 123.824H254.975L285.282 50.5117H298.847L262.047 137.102H246.461L209.659 50.5117H223.658L254.398 123.824Z" fill="white"/>
<path d="M465.711 50.5117H489.379V60.9023H465.855V126.422H491.687V137.102H465.134C461.093 137.102 457.917 136.092 455.608 134.071C453.395 131.955 452.289 128.827 452.289 124.69V60.9023H434.191C425.147 60.9023 418.076 64.1737 412.976 69.5615C407.877 74.9493 405.328 82.2611 405.328 91.4971V137.102H391.762V64.9434H384.547V50.5117H399.555V66.3857H405.616C408.117 61.2868 411.87 57.2945 416.873 54.4082C421.972 51.4257 427.986 50.5117 434.913 50.5117H452.433V24.5342H465.711V50.5117Z" fill="white"/>
<path d="M609.8 83.9932L636.065 50.5117H650.785L618.025 92.6514L652.517 137.102H636.93L609.366 101.6L581.802 137.102H566.793L601.285 92.6514L568.524 50.5117H583.533L609.8 83.9932Z" fill="white"/>
<path d="M104.344 120.981L104.346 120.982L113.523 126.281L106.062 187.271L96.7185 181.877L96.7166 181.876L96.4949 181.748L95.9226 181.415L96.0046 180.759L96.0359 180.504L96.0369 180.502L101.908 134.361L64.908 162.796L64.3787 163.204L63.7996 162.871L63.5759 162.742L63.574 162.741L54.4636 157.481L103.552 120.525L104.344 120.981Z" fill="white"/>
<path d="M81.9109 119.142L82.0808 119.782L82.1453 120.027L84.6521 129.377L84.7175 129.624L84.8884 130.263L37.6785 167.182L36.488 168.116L33.4558 156.802L70.9607 127.763L24.948 121.739L24.0281 121.62L23.7888 120.724L21.0652 110.562L81.9109 119.142Z" fill="white"/>
<path d="M167.513 149.971L167.874 150.429L168.807 151.62L157.494 154.652L128.455 117.146L122.398 163.415L122.312 164.08L121.664 164.253L121.415 164.318L121.416 164.319L111.255 167.041L119.741 106.854L119.833 106.197L120.473 106.027L130.316 103.39L130.955 103.22L167.513 149.971Z" fill="white"/>
<path d="M187.964 82.0459L182.44 91.6123L182.107 92.1875L135.054 86.1992L163.897 123.732L163.561 124.312L163.431 124.533L163.432 124.534L158.173 133.645L121.216 84.5557L121.548 83.9824L121.675 83.7617L126.973 74.585L187.964 82.0459Z" fill="white"/>
<path d="M67.031 102.127L67.5837 102.859L62.2849 112.037L62.2839 112.038L61.825 112.831L0.835693 105.37L6.2312 96.0264L6.35718 95.8057L6.68921 95.2275L7.35034 95.3125L53.7429 101.215L25.4675 64.4189L24.9021 63.6855L30.6267 53.7715L67.031 102.127Z" fill="white"/>
<path d="M68.9666 81.2158L68.3298 81.3877L68.0828 81.4541L68.0818 81.4551L58.7312 83.959L58.7322 83.96L57.8464 84.1992L19.9949 35.7949L31.3044 32.7637L31.7126 33.2891L60.3435 70.2686L66.489 23.3359L67.1355 23.1641L77.5457 20.374L68.9666 81.2158Z" fill="white"/>
<path d="M155.344 30.6143L117.838 59.6514L163.851 65.6768H163.853L164.771 65.7988L167.732 76.8535L106.889 68.2744L104.147 58.04L104.146 58.0381L104.081 57.791L103.911 57.1523L152.312 19.3027L155.344 30.6143Z" fill="white"/>
<path d="M92.0798 5.53906L92.3025 5.66602L92.8796 5.99805L86.8914 53.0518L124.425 24.2109L125.227 24.6758L134.337 29.9355L85.7771 66.4941L85.2478 66.8916L76.071 61.5938L76.0701 61.5928L75.2771 61.1338L82.738 0.144531L92.0798 5.53906Z" fill="white"/>
</svg>
