<svg width="16" height="19" viewBox="0 0 16 19" fill="none" xmlns="http://www.w3.org/2000/svg">
<path d="M13.5794 5.62335C12.1462 4.77659 10.2601 4.31299 8.26382 4.31299C6.5322 4.31299 4.88313 4.66439 3.54102 5.31005C3.5643 5.76518 3.88184 6.13987 4.12528 6.30076C4.24594 6.3812 4.39836 6.45741 4.60582 6.52938C4.95934 6.38543 5.33615 6.26054 5.73836 6.15892C6.53643 5.95994 7.38531 5.85833 8.2617 5.85833C9.1381 5.85833 9.98909 5.95994 10.785 6.15892C11.5429 6.34733 12.2182 6.61618 12.794 6.95488C13.2301 7.21314 13.5963 7.50951 13.8715 7.82281C14.3203 8.01968 14.7712 8.26524 15.2242 8.57854C15.4951 8.76483 15.7534 9.00192 15.9969 9.27712C15.9969 9.2496 15.999 9.2242 15.999 9.19668C15.999 8.47693 15.7661 7.78682 15.3067 7.1454C14.8939 6.56749 14.3118 6.0552 13.5794 5.62335Z" fill="white"/>
<path d="M2.94501 12.7724C4.37815 13.6191 6.26642 14.0849 8.26266 14.0849C9.99428 14.0849 11.6433 13.7335 12.9855 13.0878C12.9622 12.6327 12.6446 12.258 12.4012 12.0971C12.2805 12.0166 12.1281 11.9404 11.9207 11.8685C11.5671 12.0124 11.1903 12.1373 10.7881 12.2389C9.99005 12.4379 9.14117 12.5395 8.26478 12.5395C7.38838 12.5395 6.53739 12.4379 5.74143 12.2389C4.98358 12.0505 4.30829 11.7817 3.73249 11.443C3.29641 11.1847 2.93019 10.8883 2.65499 10.575C2.20621 10.3782 1.75531 10.1326 1.30229 9.8193C1.03133 9.63302 0.773068 9.39592 0.529624 9.12073C0.527508 9.14613 0.525391 9.17365 0.525391 9.19905C0.525391 9.9188 0.75825 10.6089 1.21762 11.2503C1.63041 11.8282 2.21256 12.3405 2.94501 12.7724Z" fill="white"/>
<path d="M14.3551 9.77892C13.104 8.86866 11.112 8.36907 8.26266 8.36907C5.78165 8.36907 4.03521 8.07058 3.07414 7.36989C2.37979 6.86395 2.07073 6.15902 2.07073 5.08576C2.07073 4.69625 2.20621 4.30885 2.47294 3.93416C2.7566 3.5383 3.19057 3.15938 3.73038 2.84184C4.30617 2.50314 4.98146 2.29145 5.73932 2.10304C6.53739 1.90406 7.38626 1.80244 8.26266 1.80244C9.13906 1.80244 9.99005 1.90406 10.786 2.10304C11.5439 2.29145 12.2191 2.50314 12.7949 2.84184C13.1802 3.07047 13.5105 3.32873 13.773 3.60181H15.6464C15.5511 3.40917 15.4411 3.21865 15.3077 3.03448C14.8949 2.45657 14.3128 1.94428 13.5803 1.51243C12.1472 0.665669 10.2589 0.199951 8.26266 0.199951C6.26642 0.199951 4.37815 0.667786 2.94501 1.51455C2.21256 1.94639 1.63041 2.45868 1.21762 3.0366C0.75825 3.67802 0.525391 4.36813 0.525391 5.08787C0.525391 6.66073 1.06097 7.81656 2.16387 8.62098C3.41284 9.53125 5.40696 10.0308 8.26266 10.0308C10.7373 10.0308 12.4816 10.3293 13.4448 11.03C14.1434 11.5381 14.4546 12.243 14.4546 13.312C14.4546 13.7015 14.3191 14.0889 14.0524 14.4636C13.7687 14.8595 13.3348 15.2384 12.7949 15.5559C12.2191 15.8946 11.5439 16.1063 10.786 16.2947C9.98793 16.4937 9.13906 16.5953 8.26266 16.5953C7.38626 16.5953 6.53527 16.4937 5.73932 16.2947C4.98146 16.1063 4.30617 15.8946 3.73038 15.5559C3.34298 15.3273 3.01063 15.0669 2.74814 14.7939H0.876796C0.972057 14.9886 1.08425 15.1791 1.21762 15.3654C1.63041 15.9433 2.21256 16.4556 2.94501 16.8875C4.37815 17.7342 6.26642 18.2 8.26266 18.2C10.2589 18.2 12.1472 17.7342 13.5803 16.8875C14.3128 16.4556 14.8949 15.9433 15.3077 15.3654C15.7671 14.724 15.9999 14.0339 15.9999 13.3141C15.9999 11.7434 15.4644 10.5855 14.3551 9.77892Z" fill="white"/>
</svg>
